<mxfile host="app.diagrams.net" agent="Mozilla/5.0 (Windows NT 10.0; Win64; x64) AppleWebKit/537.36 (KHTML, like Gecko) Chrome/129.0.0.0 Safari/537.36" version="24.7.12">
  <diagram name="Page-1" id="U_-ThSBGukp351-MsQGF">
    <mxGraphModel dx="1466" dy="874" grid="1" gridSize="16" guides="1" tooltips="1" connect="1" arrows="1" fold="1" page="1" pageScale="1" pageWidth="850" pageHeight="1100" math="0" shadow="0">
      <root>
        <mxCell id="0" />
        <mxCell id="1" parent="0" />
        <mxCell id="ZirOt_VJAhJDtyZ2jbi9-2" value="Proyek" style="rounded=0;whiteSpace=wrap;html=1;" parent="1" vertex="1">
          <mxGeometry x="365" y="400" width="120" height="60" as="geometry" />
        </mxCell>
        <mxCell id="ZirOt_VJAhJDtyZ2jbi9-3" value="Dikelola" style="rhombus;whiteSpace=wrap;html=1;" parent="1" vertex="1">
          <mxGeometry x="570" y="390" width="80" height="80" as="geometry" />
        </mxCell>
        <mxCell id="ZirOt_VJAhJDtyZ2jbi9-4" value="Proyek Manager" style="rounded=0;whiteSpace=wrap;html=1;" parent="1" vertex="1">
          <mxGeometry x="710" y="400" width="120" height="60" as="geometry" />
        </mxCell>
        <mxCell id="ZirOt_VJAhJDtyZ2jbi9-10" value="Karyawan" style="rounded=0;whiteSpace=wrap;html=1;" parent="1" vertex="1">
          <mxGeometry x="365" y="640" width="120" height="60" as="geometry" />
        </mxCell>
        <mxCell id="ZirOt_VJAhJDtyZ2jbi9-11" value="Nama" style="ellipse;whiteSpace=wrap;html=1;" parent="1" vertex="1">
          <mxGeometry x="265" y="750" width="120" height="80" as="geometry" />
        </mxCell>
        <mxCell id="ZirOt_VJAhJDtyZ2jbi9-17" style="edgeStyle=orthogonalEdgeStyle;rounded=0;orthogonalLoop=1;jettySize=auto;html=1;entryX=0.75;entryY=1;entryDx=0;entryDy=0;" parent="1" source="ZirOt_VJAhJDtyZ2jbi9-12" target="ZirOt_VJAhJDtyZ2jbi9-10" edge="1">
          <mxGeometry relative="1" as="geometry" />
        </mxCell>
        <mxCell id="ZirOt_VJAhJDtyZ2jbi9-12" value="ID karyawan" style="ellipse;whiteSpace=wrap;html=1;" parent="1" vertex="1">
          <mxGeometry x="480" y="760" width="120" height="80" as="geometry" />
        </mxCell>
        <mxCell id="ZirOt_VJAhJDtyZ2jbi9-19" style="edgeStyle=orthogonalEdgeStyle;rounded=0;orthogonalLoop=1;jettySize=auto;html=1;entryX=1;entryY=0.75;entryDx=0;entryDy=0;" parent="1" source="ZirOt_VJAhJDtyZ2jbi9-13" target="ZirOt_VJAhJDtyZ2jbi9-10" edge="1">
          <mxGeometry relative="1" as="geometry" />
        </mxCell>
        <mxCell id="ZirOt_VJAhJDtyZ2jbi9-13" value="Jabatan" style="ellipse;whiteSpace=wrap;html=1;" parent="1" vertex="1">
          <mxGeometry x="630" y="660" width="120" height="80" as="geometry" />
        </mxCell>
        <mxCell id="ZirOt_VJAhJDtyZ2jbi9-14" value="Jam Kerja" style="rounded=0;whiteSpace=wrap;html=1;" parent="1" vertex="1">
          <mxGeometry x="80" y="400" width="120" height="60" as="geometry" />
        </mxCell>
        <mxCell id="ZirOt_VJAhJDtyZ2jbi9-18" style="edgeStyle=orthogonalEdgeStyle;rounded=0;orthogonalLoop=1;jettySize=auto;html=1;entryX=0.332;entryY=1.036;entryDx=0;entryDy=0;entryPerimeter=0;" parent="1" source="ZirOt_VJAhJDtyZ2jbi9-11" target="ZirOt_VJAhJDtyZ2jbi9-10" edge="1">
          <mxGeometry relative="1" as="geometry" />
        </mxCell>
        <mxCell id="ZirOt_VJAhJDtyZ2jbi9-20" value="mencatat" style="rhombus;whiteSpace=wrap;html=1;" parent="1" vertex="1">
          <mxGeometry x="240" y="390" width="80" height="80" as="geometry" />
        </mxCell>
        <mxCell id="ZirOt_VJAhJDtyZ2jbi9-21" value="memiliki" style="rhombus;whiteSpace=wrap;html=1;" parent="1" vertex="1">
          <mxGeometry x="100" y="630" width="80" height="80" as="geometry" />
        </mxCell>
        <mxCell id="ZirOt_VJAhJDtyZ2jbi9-27" style="edgeStyle=orthogonalEdgeStyle;rounded=0;orthogonalLoop=1;jettySize=auto;html=1;entryX=0.875;entryY=0;entryDx=0;entryDy=0;entryPerimeter=0;" parent="1" source="ZirOt_VJAhJDtyZ2jbi9-22" target="ZirOt_VJAhJDtyZ2jbi9-2" edge="1">
          <mxGeometry relative="1" as="geometry">
            <Array as="points">
              <mxPoint x="513" y="220" />
              <mxPoint x="513" y="380" />
              <mxPoint x="470" y="380" />
            </Array>
          </mxGeometry>
        </mxCell>
        <mxCell id="ZirOt_VJAhJDtyZ2jbi9-22" value="Lokasi" style="ellipse;whiteSpace=wrap;html=1;" parent="1" vertex="1">
          <mxGeometry x="540" y="180" width="120" height="80" as="geometry" />
        </mxCell>
        <mxCell id="ZirOt_VJAhJDtyZ2jbi9-25" style="edgeStyle=orthogonalEdgeStyle;rounded=0;orthogonalLoop=1;jettySize=auto;html=1;entryX=0.144;entryY=-0.036;entryDx=0;entryDy=0;entryPerimeter=0;" parent="1" source="ZirOt_VJAhJDtyZ2jbi9-23" target="ZirOt_VJAhJDtyZ2jbi9-2" edge="1">
          <mxGeometry relative="1" as="geometry">
            <Array as="points">
              <mxPoint x="260" y="330" />
              <mxPoint x="382" y="330" />
            </Array>
          </mxGeometry>
        </mxCell>
        <mxCell id="ZirOt_VJAhJDtyZ2jbi9-23" value="Budget" style="ellipse;whiteSpace=wrap;html=1;" parent="1" vertex="1">
          <mxGeometry x="170" y="180" width="120" height="80" as="geometry" />
        </mxCell>
        <mxCell id="ZirOt_VJAhJDtyZ2jbi9-26" style="rounded=0;orthogonalLoop=1;jettySize=auto;html=1;entryX=0.5;entryY=0;entryDx=0;entryDy=0;strokeColor=default;strokeWidth=1;" parent="1" source="ZirOt_VJAhJDtyZ2jbi9-24" target="ZirOt_VJAhJDtyZ2jbi9-2" edge="1">
          <mxGeometry relative="1" as="geometry" />
        </mxCell>
        <mxCell id="ZirOt_VJAhJDtyZ2jbi9-24" value="Nama" style="ellipse;whiteSpace=wrap;html=1;" parent="1" vertex="1">
          <mxGeometry x="365" y="150" width="120" height="80" as="geometry" />
        </mxCell>
        <mxCell id="ZirOt_VJAhJDtyZ2jbi9-36" value="" style="edgeStyle=orthogonalEdgeStyle;rounded=0;orthogonalLoop=1;jettySize=auto;html=1;" parent="1" source="ZirOt_VJAhJDtyZ2jbi9-35" target="ZirOt_VJAhJDtyZ2jbi9-4" edge="1">
          <mxGeometry relative="1" as="geometry" />
        </mxCell>
        <mxCell id="ZirOt_VJAhJDtyZ2jbi9-35" value="Nama" style="ellipse;whiteSpace=wrap;html=1;" parent="1" vertex="1">
          <mxGeometry x="710" y="510" width="120" height="80" as="geometry" />
        </mxCell>
        <mxCell id="ZirOt_VJAhJDtyZ2jbi9-37" value="" style="endArrow=none;html=1;rounded=0;exitX=1;exitY=0.5;exitDx=0;exitDy=0;entryX=0;entryY=0.5;entryDx=0;entryDy=0;" parent="1" source="ZirOt_VJAhJDtyZ2jbi9-14" target="ZirOt_VJAhJDtyZ2jbi9-20" edge="1">
          <mxGeometry width="50" height="50" relative="1" as="geometry">
            <mxPoint x="220" y="520" as="sourcePoint" />
            <mxPoint x="270" y="470" as="targetPoint" />
          </mxGeometry>
        </mxCell>
        <mxCell id="ZirOt_VJAhJDtyZ2jbi9-38" value="" style="endArrow=none;html=1;rounded=0;entryX=0;entryY=0.5;entryDx=0;entryDy=0;" parent="1" target="ZirOt_VJAhJDtyZ2jbi9-2" edge="1">
          <mxGeometry width="50" height="50" relative="1" as="geometry">
            <mxPoint x="320" y="430" as="sourcePoint" />
            <mxPoint x="370" y="380" as="targetPoint" />
          </mxGeometry>
        </mxCell>
        <mxCell id="ZirOt_VJAhJDtyZ2jbi9-39" value="" style="endArrow=none;html=1;rounded=0;exitX=1;exitY=0.5;exitDx=0;exitDy=0;entryX=0;entryY=0.5;entryDx=0;entryDy=0;" parent="1" source="ZirOt_VJAhJDtyZ2jbi9-2" target="ZirOt_VJAhJDtyZ2jbi9-3" edge="1">
          <mxGeometry width="50" height="50" relative="1" as="geometry">
            <mxPoint x="490" y="430" as="sourcePoint" />
            <mxPoint x="540" y="380" as="targetPoint" />
          </mxGeometry>
        </mxCell>
        <mxCell id="ZirOt_VJAhJDtyZ2jbi9-40" value="" style="endArrow=none;html=1;rounded=0;entryX=0;entryY=0.5;entryDx=0;entryDy=0;" parent="1" target="ZirOt_VJAhJDtyZ2jbi9-4" edge="1">
          <mxGeometry width="50" height="50" relative="1" as="geometry">
            <mxPoint x="650" y="430" as="sourcePoint" />
            <mxPoint x="700" y="380" as="targetPoint" />
          </mxGeometry>
        </mxCell>
        <mxCell id="ZirOt_VJAhJDtyZ2jbi9-41" value="" style="endArrow=none;html=1;rounded=0;entryX=0.5;entryY=1;entryDx=0;entryDy=0;" parent="1" target="ZirOt_VJAhJDtyZ2jbi9-14" edge="1">
          <mxGeometry width="50" height="50" relative="1" as="geometry">
            <mxPoint x="140" y="630" as="sourcePoint" />
            <mxPoint x="190" y="580" as="targetPoint" />
          </mxGeometry>
        </mxCell>
        <mxCell id="ZirOt_VJAhJDtyZ2jbi9-42" value="" style="endArrow=none;html=1;rounded=0;entryX=0;entryY=0.5;entryDx=0;entryDy=0;" parent="1" target="ZirOt_VJAhJDtyZ2jbi9-10" edge="1">
          <mxGeometry width="50" height="50" relative="1" as="geometry">
            <mxPoint x="180" y="670" as="sourcePoint" />
            <mxPoint x="360" y="670" as="targetPoint" />
          </mxGeometry>
        </mxCell>
        <mxCell id="8yiLDPME0U-5GVnbeEcH-37" value="1" style="text;html=1;align=center;verticalAlign=middle;whiteSpace=wrap;rounded=0;" vertex="1" parent="1">
          <mxGeometry x="496" y="430" width="60" height="30" as="geometry" />
        </mxCell>
        <mxCell id="8yiLDPME0U-5GVnbeEcH-38" value="1" style="text;html=1;align=center;verticalAlign=middle;whiteSpace=wrap;rounded=0;" vertex="1" parent="1">
          <mxGeometry x="650" y="430" width="60" height="30" as="geometry" />
        </mxCell>
        <mxCell id="8yiLDPME0U-5GVnbeEcH-41" value="M" style="text;html=1;align=center;verticalAlign=middle;whiteSpace=wrap;rounded=0;" vertex="1" parent="1">
          <mxGeometry x="230" y="670" width="60" height="30" as="geometry" />
        </mxCell>
        <mxCell id="8yiLDPME0U-5GVnbeEcH-44" value="M" style="text;html=1;align=center;verticalAlign=middle;whiteSpace=wrap;rounded=0;" vertex="1" parent="1">
          <mxGeometry x="140" y="470" width="60" height="30" as="geometry" />
        </mxCell>
        <mxCell id="8yiLDPME0U-5GVnbeEcH-45" value="M" style="text;html=1;align=center;verticalAlign=middle;whiteSpace=wrap;rounded=0;" vertex="1" parent="1">
          <mxGeometry x="195" y="400" width="60" height="30" as="geometry" />
        </mxCell>
        <mxCell id="8yiLDPME0U-5GVnbeEcH-46" value="1" style="text;html=1;align=center;verticalAlign=middle;whiteSpace=wrap;rounded=0;" vertex="1" parent="1">
          <mxGeometry x="311" y="400" width="60" height="30" as="geometry" />
        </mxCell>
        <mxCell id="8yiLDPME0U-5GVnbeEcH-50" value="ID Proyek" style="ellipse;whiteSpace=wrap;html=1;" vertex="1" parent="1">
          <mxGeometry x="265" y="70" width="120" height="80" as="geometry" />
        </mxCell>
        <mxCell id="8yiLDPME0U-5GVnbeEcH-51" style="edgeStyle=orthogonalEdgeStyle;rounded=0;orthogonalLoop=1;jettySize=auto;html=1;entryX=0.355;entryY=0.053;entryDx=0;entryDy=0;entryPerimeter=0;" edge="1" parent="1" source="8yiLDPME0U-5GVnbeEcH-50" target="ZirOt_VJAhJDtyZ2jbi9-2">
          <mxGeometry relative="1" as="geometry">
            <Array as="points">
              <mxPoint x="336" y="272" />
              <mxPoint x="408" y="272" />
            </Array>
          </mxGeometry>
        </mxCell>
        <mxCell id="8yiLDPME0U-5GVnbeEcH-53" value="" style="edgeStyle=orthogonalEdgeStyle;rounded=0;orthogonalLoop=1;jettySize=auto;html=1;" edge="1" parent="1" source="8yiLDPME0U-5GVnbeEcH-52" target="ZirOt_VJAhJDtyZ2jbi9-4">
          <mxGeometry relative="1" as="geometry" />
        </mxCell>
        <mxCell id="8yiLDPME0U-5GVnbeEcH-52" value="ID Proyek Manager" style="ellipse;whiteSpace=wrap;html=1;" vertex="1" parent="1">
          <mxGeometry x="710" y="272" width="120" height="80" as="geometry" />
        </mxCell>
        <mxCell id="8yiLDPME0U-5GVnbeEcH-56" style="edgeStyle=orthogonalEdgeStyle;rounded=0;orthogonalLoop=1;jettySize=auto;html=1;entryX=0.5;entryY=0;entryDx=0;entryDy=0;" edge="1" parent="1" source="8yiLDPME0U-5GVnbeEcH-54" target="ZirOt_VJAhJDtyZ2jbi9-14">
          <mxGeometry relative="1" as="geometry" />
        </mxCell>
        <mxCell id="8yiLDPME0U-5GVnbeEcH-54" value="ID Jam Kerja" style="ellipse;whiteSpace=wrap;html=1;" vertex="1" parent="1">
          <mxGeometry x="120" y="288" width="120" height="80" as="geometry" />
        </mxCell>
        <mxCell id="8yiLDPME0U-5GVnbeEcH-57" value="ID Karyawan" style="ellipse;whiteSpace=wrap;html=1;" vertex="1" parent="1">
          <mxGeometry x="371" y="840" width="120" height="80" as="geometry" />
        </mxCell>
        <mxCell id="8yiLDPME0U-5GVnbeEcH-58" style="edgeStyle=orthogonalEdgeStyle;rounded=0;orthogonalLoop=1;jettySize=auto;html=1;entryX=0.552;entryY=0.977;entryDx=0;entryDy=0;entryPerimeter=0;" edge="1" parent="1" source="8yiLDPME0U-5GVnbeEcH-57" target="ZirOt_VJAhJDtyZ2jbi9-10">
          <mxGeometry relative="1" as="geometry" />
        </mxCell>
        <mxCell id="8yiLDPME0U-5GVnbeEcH-60" style="edgeStyle=orthogonalEdgeStyle;rounded=0;orthogonalLoop=1;jettySize=auto;html=1;entryX=0;entryY=0.5;entryDx=0;entryDy=0;" edge="1" parent="1" source="8yiLDPME0U-5GVnbeEcH-59" target="ZirOt_VJAhJDtyZ2jbi9-14">
          <mxGeometry relative="1" as="geometry" />
        </mxCell>
        <mxCell id="8yiLDPME0U-5GVnbeEcH-59" value="Tanggal" style="ellipse;whiteSpace=wrap;html=1;" vertex="1" parent="1">
          <mxGeometry y="230" width="120" height="80" as="geometry" />
        </mxCell>
        <mxCell id="8yiLDPME0U-5GVnbeEcH-61" value="Reservations" style="rounded=0;whiteSpace=wrap;html=1;" vertex="1" parent="1">
          <mxGeometry x="1215" y="260" width="120" height="60" as="geometry" />
        </mxCell>
        <mxCell id="8yiLDPME0U-5GVnbeEcH-62" value="Rooms" style="rounded=0;whiteSpace=wrap;html=1;" vertex="1" parent="1">
          <mxGeometry x="1400" y="710" width="120" height="60" as="geometry" />
        </mxCell>
        <mxCell id="8yiLDPME0U-5GVnbeEcH-63" value="Guests" style="rounded=0;whiteSpace=wrap;html=1;" vertex="1" parent="1">
          <mxGeometry x="976" y="710" width="120" height="60" as="geometry" />
        </mxCell>
        <mxCell id="8yiLDPME0U-5GVnbeEcH-86" style="edgeStyle=orthogonalEdgeStyle;rounded=0;orthogonalLoop=1;jettySize=auto;html=1;entryX=0.5;entryY=1;entryDx=0;entryDy=0;" edge="1" parent="1" source="8yiLDPME0U-5GVnbeEcH-64" target="8yiLDPME0U-5GVnbeEcH-62">
          <mxGeometry relative="1" as="geometry" />
        </mxCell>
        <mxCell id="8yiLDPME0U-5GVnbeEcH-64" value="Room Type" style="ellipse;whiteSpace=wrap;html=1;" vertex="1" parent="1">
          <mxGeometry x="1400" y="960" width="120" height="80" as="geometry" />
        </mxCell>
        <mxCell id="8yiLDPME0U-5GVnbeEcH-85" style="edgeStyle=orthogonalEdgeStyle;rounded=0;orthogonalLoop=1;jettySize=auto;html=1;entryX=0.127;entryY=1.039;entryDx=0;entryDy=0;entryPerimeter=0;" edge="1" parent="1" source="8yiLDPME0U-5GVnbeEcH-65" target="8yiLDPME0U-5GVnbeEcH-62">
          <mxGeometry relative="1" as="geometry">
            <mxPoint x="1416" y="784" as="targetPoint" />
          </mxGeometry>
        </mxCell>
        <mxCell id="8yiLDPME0U-5GVnbeEcH-65" value="Room Number" style="ellipse;whiteSpace=wrap;html=1;" vertex="1" parent="1">
          <mxGeometry x="1256" y="880" width="120" height="80" as="geometry" />
        </mxCell>
        <mxCell id="8yiLDPME0U-5GVnbeEcH-87" style="edgeStyle=orthogonalEdgeStyle;rounded=0;orthogonalLoop=1;jettySize=auto;html=1;entryX=0.75;entryY=1;entryDx=0;entryDy=0;" edge="1" parent="1" source="8yiLDPME0U-5GVnbeEcH-66" target="8yiLDPME0U-5GVnbeEcH-62">
          <mxGeometry relative="1" as="geometry" />
        </mxCell>
        <mxCell id="8yiLDPME0U-5GVnbeEcH-66" value="Price Per Night" style="ellipse;whiteSpace=wrap;html=1;" vertex="1" parent="1">
          <mxGeometry x="1544" y="880" width="120" height="80" as="geometry" />
        </mxCell>
        <mxCell id="8yiLDPME0U-5GVnbeEcH-67" value="Phone" style="ellipse;whiteSpace=wrap;html=1;" vertex="1" parent="1">
          <mxGeometry x="864" y="830" width="120" height="80" as="geometry" />
        </mxCell>
        <mxCell id="8yiLDPME0U-5GVnbeEcH-84" style="edgeStyle=orthogonalEdgeStyle;rounded=0;orthogonalLoop=1;jettySize=auto;html=1;entryX=0.5;entryY=1;entryDx=0;entryDy=0;" edge="1" parent="1" source="8yiLDPME0U-5GVnbeEcH-68" target="8yiLDPME0U-5GVnbeEcH-63">
          <mxGeometry relative="1" as="geometry" />
        </mxCell>
        <mxCell id="8yiLDPME0U-5GVnbeEcH-68" value="Adress" style="ellipse;whiteSpace=wrap;html=1;" vertex="1" parent="1">
          <mxGeometry x="976" y="944" width="120" height="80" as="geometry" />
        </mxCell>
        <mxCell id="8yiLDPME0U-5GVnbeEcH-83" style="edgeStyle=orthogonalEdgeStyle;rounded=0;orthogonalLoop=1;jettySize=auto;html=1;entryX=0.75;entryY=1;entryDx=0;entryDy=0;" edge="1" parent="1" source="8yiLDPME0U-5GVnbeEcH-69" target="8yiLDPME0U-5GVnbeEcH-63">
          <mxGeometry relative="1" as="geometry" />
        </mxCell>
        <mxCell id="8yiLDPME0U-5GVnbeEcH-69" value="Name" style="ellipse;whiteSpace=wrap;html=1;" vertex="1" parent="1">
          <mxGeometry x="1080" y="830" width="120" height="80" as="geometry" />
        </mxCell>
        <mxCell id="8yiLDPME0U-5GVnbeEcH-80" value="" style="edgeStyle=orthogonalEdgeStyle;rounded=0;orthogonalLoop=1;jettySize=auto;html=1;" edge="1" parent="1" source="8yiLDPME0U-5GVnbeEcH-70" target="8yiLDPME0U-5GVnbeEcH-63">
          <mxGeometry relative="1" as="geometry" />
        </mxCell>
        <mxCell id="8yiLDPME0U-5GVnbeEcH-70" value="Guests ID" style="ellipse;whiteSpace=wrap;html=1;" vertex="1" parent="1">
          <mxGeometry x="1135" y="700" width="120" height="80" as="geometry" />
        </mxCell>
        <mxCell id="8yiLDPME0U-5GVnbeEcH-90" style="edgeStyle=orthogonalEdgeStyle;rounded=0;orthogonalLoop=1;jettySize=auto;html=1;entryX=1;entryY=0.5;entryDx=0;entryDy=0;" edge="1" parent="1" source="8yiLDPME0U-5GVnbeEcH-71" target="8yiLDPME0U-5GVnbeEcH-62">
          <mxGeometry relative="1" as="geometry" />
        </mxCell>
        <mxCell id="8yiLDPME0U-5GVnbeEcH-71" value="Room ID" style="ellipse;whiteSpace=wrap;html=1;" vertex="1" parent="1">
          <mxGeometry x="1568" y="700" width="120" height="80" as="geometry" />
        </mxCell>
        <mxCell id="8yiLDPME0U-5GVnbeEcH-76" style="edgeStyle=orthogonalEdgeStyle;rounded=0;orthogonalLoop=1;jettySize=auto;html=1;entryX=0.25;entryY=0;entryDx=0;entryDy=0;" edge="1" parent="1" source="8yiLDPME0U-5GVnbeEcH-72" target="8yiLDPME0U-5GVnbeEcH-61">
          <mxGeometry relative="1" as="geometry" />
        </mxCell>
        <mxCell id="8yiLDPME0U-5GVnbeEcH-72" value="Check In Date" style="ellipse;whiteSpace=wrap;html=1;" vertex="1" parent="1">
          <mxGeometry x="1095" y="112" width="120" height="80" as="geometry" />
        </mxCell>
        <mxCell id="8yiLDPME0U-5GVnbeEcH-77" style="edgeStyle=orthogonalEdgeStyle;rounded=0;orthogonalLoop=1;jettySize=auto;html=1;entryX=0.421;entryY=0.03;entryDx=0;entryDy=0;entryPerimeter=0;" edge="1" parent="1" source="8yiLDPME0U-5GVnbeEcH-73" target="8yiLDPME0U-5GVnbeEcH-61">
          <mxGeometry relative="1" as="geometry">
            <mxPoint x="1264" y="240" as="targetPoint" />
            <Array as="points">
              <mxPoint x="1266" y="56" />
            </Array>
          </mxGeometry>
        </mxCell>
        <mxCell id="8yiLDPME0U-5GVnbeEcH-73" value="Reservations ID" style="ellipse;whiteSpace=wrap;html=1;" vertex="1" parent="1">
          <mxGeometry x="1096" y="16" width="120" height="80" as="geometry" />
        </mxCell>
        <mxCell id="8yiLDPME0U-5GVnbeEcH-74" value="Payment Status" style="ellipse;whiteSpace=wrap;html=1;" vertex="1" parent="1">
          <mxGeometry x="1335" y="16" width="120" height="80" as="geometry" />
        </mxCell>
        <mxCell id="8yiLDPME0U-5GVnbeEcH-75" value="Check Out Date" style="ellipse;whiteSpace=wrap;html=1;" vertex="1" parent="1">
          <mxGeometry x="1335" y="112" width="120" height="80" as="geometry" />
        </mxCell>
        <mxCell id="8yiLDPME0U-5GVnbeEcH-78" style="edgeStyle=orthogonalEdgeStyle;rounded=0;orthogonalLoop=1;jettySize=auto;html=1;entryX=0.588;entryY=0.047;entryDx=0;entryDy=0;entryPerimeter=0;" edge="1" parent="1" source="8yiLDPME0U-5GVnbeEcH-74" target="8yiLDPME0U-5GVnbeEcH-61">
          <mxGeometry relative="1" as="geometry">
            <Array as="points">
              <mxPoint x="1286" y="56" />
            </Array>
          </mxGeometry>
        </mxCell>
        <mxCell id="8yiLDPME0U-5GVnbeEcH-79" style="edgeStyle=orthogonalEdgeStyle;rounded=0;orthogonalLoop=1;jettySize=auto;html=1;entryX=0.816;entryY=0.03;entryDx=0;entryDy=0;entryPerimeter=0;" edge="1" parent="1" source="8yiLDPME0U-5GVnbeEcH-75" target="8yiLDPME0U-5GVnbeEcH-61">
          <mxGeometry relative="1" as="geometry" />
        </mxCell>
        <mxCell id="8yiLDPME0U-5GVnbeEcH-82" style="edgeStyle=orthogonalEdgeStyle;rounded=0;orthogonalLoop=1;jettySize=auto;html=1;entryX=0.387;entryY=1.039;entryDx=0;entryDy=0;entryPerimeter=0;" edge="1" parent="1" source="8yiLDPME0U-5GVnbeEcH-67" target="8yiLDPME0U-5GVnbeEcH-63">
          <mxGeometry relative="1" as="geometry" />
        </mxCell>
        <mxCell id="8yiLDPME0U-5GVnbeEcH-91" value="Memesan" style="rhombus;whiteSpace=wrap;html=1;" vertex="1" parent="1">
          <mxGeometry x="1115" y="445" width="80" height="80" as="geometry" />
        </mxCell>
        <mxCell id="8yiLDPME0U-5GVnbeEcH-93" value="Dipesan" style="rhombus;whiteSpace=wrap;html=1;" vertex="1" parent="1">
          <mxGeometry x="1376" y="445" width="80" height="80" as="geometry" />
        </mxCell>
        <mxCell id="8yiLDPME0U-5GVnbeEcH-97" value="" style="endArrow=none;html=1;rounded=0;entryX=0.5;entryY=1;entryDx=0;entryDy=0;exitX=0.5;exitY=0;exitDx=0;exitDy=0;" edge="1" parent="1" source="8yiLDPME0U-5GVnbeEcH-62" target="8yiLDPME0U-5GVnbeEcH-93">
          <mxGeometry width="50" height="50" relative="1" as="geometry">
            <mxPoint x="1376" y="578" as="sourcePoint" />
            <mxPoint x="1426" y="528" as="targetPoint" />
            <Array as="points">
              <mxPoint x="1460" y="525" />
            </Array>
          </mxGeometry>
        </mxCell>
        <mxCell id="8yiLDPME0U-5GVnbeEcH-99" value="" style="endArrow=none;html=1;rounded=0;entryX=0.5;entryY=1;entryDx=0;entryDy=0;exitX=0.5;exitY=0;exitDx=0;exitDy=0;" edge="1" parent="1" source="8yiLDPME0U-5GVnbeEcH-63" target="8yiLDPME0U-5GVnbeEcH-91">
          <mxGeometry width="50" height="50" relative="1" as="geometry">
            <mxPoint x="1104" y="578" as="sourcePoint" />
            <mxPoint x="1154" y="528" as="targetPoint" />
            <Array as="points">
              <mxPoint x="1036" y="525" />
            </Array>
          </mxGeometry>
        </mxCell>
        <mxCell id="8yiLDPME0U-5GVnbeEcH-104" value="" style="endArrow=none;html=1;rounded=0;exitX=1;exitY=0.5;exitDx=0;exitDy=0;entryX=0.25;entryY=1;entryDx=0;entryDy=0;" edge="1" parent="1" source="8yiLDPME0U-5GVnbeEcH-91" target="8yiLDPME0U-5GVnbeEcH-61">
          <mxGeometry width="50" height="50" relative="1" as="geometry">
            <mxPoint x="1216" y="370" as="sourcePoint" />
            <mxPoint x="1266" y="320" as="targetPoint" />
            <Array as="points">
              <mxPoint x="1245" y="485" />
            </Array>
          </mxGeometry>
        </mxCell>
        <mxCell id="8yiLDPME0U-5GVnbeEcH-105" value="" style="endArrow=none;html=1;rounded=0;exitX=0;exitY=0.5;exitDx=0;exitDy=0;entryX=0.75;entryY=1;entryDx=0;entryDy=0;" edge="1" parent="1" source="8yiLDPME0U-5GVnbeEcH-93" target="8yiLDPME0U-5GVnbeEcH-61">
          <mxGeometry width="50" height="50" relative="1" as="geometry">
            <mxPoint x="1248" y="370" as="sourcePoint" />
            <mxPoint x="1298" y="320" as="targetPoint" />
            <Array as="points">
              <mxPoint x="1305" y="485" />
            </Array>
          </mxGeometry>
        </mxCell>
        <mxCell id="8yiLDPME0U-5GVnbeEcH-108" value="M" style="text;html=1;align=center;verticalAlign=middle;whiteSpace=wrap;rounded=0;" vertex="1" parent="1">
          <mxGeometry x="1195" y="322" width="60" height="30" as="geometry" />
        </mxCell>
        <mxCell id="8yiLDPME0U-5GVnbeEcH-109" value="1" style="text;html=1;align=center;verticalAlign=middle;whiteSpace=wrap;rounded=0;" vertex="1" parent="1">
          <mxGeometry x="992" y="680" width="60" height="30" as="geometry" />
        </mxCell>
        <mxCell id="8yiLDPME0U-5GVnbeEcH-110" value="M" style="text;html=1;align=center;verticalAlign=middle;whiteSpace=wrap;rounded=0;" vertex="1" parent="1">
          <mxGeometry x="1296" y="322" width="60" height="30" as="geometry" />
        </mxCell>
        <mxCell id="8yiLDPME0U-5GVnbeEcH-111" value="M" style="text;html=1;align=center;verticalAlign=middle;whiteSpace=wrap;rounded=0;" vertex="1" parent="1">
          <mxGeometry x="1449" y="680" width="60" height="30" as="geometry" />
        </mxCell>
      </root>
    </mxGraphModel>
  </diagram>
</mxfile>
